<?xml version="1.0" standalone="no"?>
<!DOCTYPE svg PUBLIC "-//W3C//DTD SVG 20010904//EN"
 "http://www.w3.org/TR/2001/REC-SVG-20010904/DTD/svg10.dtd">
<svg version="1.0" xmlns="http://www.w3.org/2000/svg"
 width="601.000000pt" height="235.000000pt" viewBox="0 0 601.000000 235.000000"
 preserveAspectRatio="xMidYMid meet">
<metadata>
Created by potrace 1.16, written by Peter Selinger 2001-2019
</metadata>
<g transform="translate(0.000000,235.000000) scale(0.100000,-0.100000)"
fill="#7b61d5" stroke="none">
<path d="M761 2339 c-364 -44 -665 -278 -741 -575 -21 -81 -29 -294 -11 -294
11 0 294 129 303 138 4 4 -2 34 -14 67 -42 125 6 270 127 384 61 57 141 108
152 98 2 -3 -63 -344 -146 -759 -83 -414 -151 -759 -151 -765 0 -16 427 -18
600 -3 271 24 436 111 523 278 136 258 55 550 -184 666 l-67 32 52 41 c189
146 220 409 66 563 -102 102 -306 154 -509 129z m224 -148 c52 -23 101 -80
116 -133 16 -59 6 -163 -20 -223 -40 -91 -143 -169 -247 -188 l-31 -6 23 117
c96 503 83 468 159 433z m-12 -732 c270 -135 185 -528 -139 -639 -32 -11 -91
-23 -130 -27 l-71 -6 58 299 c86 438 77 402 102 406 41 6 137 -12 180 -33z"/>
<path d="M4134 2325 c-84 -18 -157 -57 -222 -119 -91 -85 -153 -193 -206 -353
l-28 -83 -59 0 -59 0 -24 -54 c-45 -102 -47 -96 33 -96 39 0 71 -1 71 -3 0 -2
-27 -135 -60 -297 -67 -328 -69 -331 -171 -431 -177 -174 -393 -152 -463 48
-8 23 -18 62 -21 87 l-7 46 55 0 c177 0 354 99 431 240 88 162 58 357 -68 435
-100 61 -270 42 -403 -45 -210 -138 -344 -454 -312 -739 l10 -85 -33 -34 c-39
-41 -115 -92 -138 -92 -25 0 -50 33 -50 66 0 16 38 234 85 483 47 250 85 459
85 463 0 4 -71 8 -157 8 l-158 0 -73 -393 c-41 -215 -76 -400 -78 -409 -10
-34 -94 -137 -144 -177 -89 -71 -138 -50 -126 54 4 41 146 778 172 898 l6 27
-161 0 c-143 0 -160 -2 -165 -17 -3 -10 -39 -191 -81 -403 -69 -346 -76 -394
-73 -476 5 -114 38 -190 101 -232 36 -24 50 -27 126 -27 73 0 95 4 145 28 64
30 135 81 178 129 l26 30 11 -37 c14 -50 47 -97 89 -126 31 -21 47 -24 121
-24 75 0 94 4 151 31 36 17 92 53 124 81 l60 50 37 -48 c27 -33 58 -57 104
-80 58 -29 78 -33 169 -37 178 -8 313 36 429 138 31 29 57 48 57 43 0 -5 -31
-166 -70 -358 -38 -192 -70 -355 -70 -362 0 -10 37 -13 168 -13 l168 0 148
733 c81 402 152 753 158 779 l9 47 75 3 74 3 35 73 34 72 -93 0 -93 0 36 180
c34 172 36 180 63 191 36 15 68 6 134 -38 l55 -37 114 114 c82 82 111 117 101
122 -25 14 -189 38 -255 37 -36 0 -93 -7 -127 -14z m-863 -697 c17 -32 5 -153
-22 -223 -17 -43 -40 -77 -84 -121 -61 -61 -104 -83 -197 -99 -46 -7 -47 -1
-18 100 43 152 143 310 222 348 47 23 85 22 99 -5z"/>
<path d="M4175 1373 c-87 -434 -95 -511 -61 -610 21 -62 85 -126 142 -142 110
-31 265 13 372 105 l38 32 -14 -77 -15 -77 -66 -17 c-141 -37 -239 -105 -289
-202 -20 -39 -26 -68 -29 -135 -4 -80 -2 -88 26 -137 21 -36 46 -61 78 -80 43
-25 57 -28 138 -28 76 0 99 5 147 27 128 59 187 136 245 315 l36 114 51 -6
c196 -24 320 -58 599 -162 l198 -74 119 103 c65 57 119 105 119 108 1 7 -343
92 -479 119 -135 27 -295 50 -439 61 -69 6 -126 11 -127 13 -2 1 8 52 22 112
30 134 204 1003 204 1021 0 11 -32 14 -160 14 -88 0 -160 -4 -160 -8 0 -5 -36
-186 -80 -402 -53 -256 -87 -404 -100 -425 -48 -78 -187 -184 -242 -185 -28 0
-48 29 -48 72 0 33 159 872 176 931 5 16 -7 17 -158 17 l-163 0 -80 -397z
m419 -950 c-23 -95 -69 -175 -114 -198 -71 -37 -130 49 -84 121 20 29 88 71
147 89 58 19 58 18 51 -12z"/>
</g>
</svg>
