<?xml version="1.0" standalone="no"?>
<!DOCTYPE svg PUBLIC "-//W3C//DTD SVG 20010904//EN"
 "http://www.w3.org/TR/2001/REC-SVG-20010904/DTD/svg10.dtd">
<svg version="1.0" xmlns="http://www.w3.org/2000/svg"
 width="512.000000pt" height="512.000000pt" viewBox="0 0 512.000000 512.000000"
 preserveAspectRatio="xMidYMid meet">
<circle cx="50%" cy="50%" r="50%" fill="white" />
<g transform="translate(0.000000,512.000000) scale(0.100000,-0.100000)" stroke="none">
<path d="M360 5101 c-91 -29 -142 -61 -211 -130 -70 -70 -106 -130 -133 -220
-14 -50 -16 -255 -16 -2191 0 -2343 -4 -2173 58 -2295 32 -64 143 -175 207
-207 122 -62 -48 -58 2295 -58 2343 0 2173 -4 2295 58 64 32 175 143 207 207
62 122 58 -48 58 2295 0 2343 4 2173 -58 2295 -32 64 -143 175 -207 207 -122
62 49 58 -2299 57 -2024 0 -2144 -1 -2196 -18z m1801 -974 c144 -38 228 -89
266 -161 44 -83 -12 -480 -196 -1391 -38 -187 -67 -342 -65 -344 7 -7 255 108
329 152 l69 42 41 150 c51 184 90 303 167 510 110 291 124 314 201 336 76 22
156 -39 222 -171 l36 -71 52 44 c98 84 203 125 342 133 212 14 384 -66 463
-214 46 -85 62 -160 62 -283 0 -135 -24 -231 -90 -364 -87 -177 -219 -319
-369 -399 l-66 -35 42 -1 c63 0 176 26 261 62 159 66 298 178 487 391 37 42
57 57 77 57 43 0 51 -20 46 -122 -3 -79 -9 -104 -36 -162 -100 -214 -321 -393
-562 -454 -191 -50 -485 -55 -615 -11 -132 44 -196 139 -175 259 12 75 14 77
98 89 43 6 105 25 140 41 164 77 277 288 297 556 6 79 4 98 -13 136 -23 53
-69 94 -123 108 -90 24 -219 -35 -314 -143 -56 -64 -183 -310 -220 -427 -28
-91 -68 -316 -135 -765 -76 -516 -97 -624 -126 -663 -45 -59 -111 -71 -179
-35 -39 21 -142 139 -156 178 -30 86 -11 401 47 763 13 84 24 157 24 162 0 5
-89 -35 -198 -88 l-197 -96 -23 -78 c-28 -100 -133 -355 -179 -433 -89 -152
-192 -265 -305 -332 -320 -193 -871 -83 -979 194 -17 44 -23 80 -23 149 -1 84
1 94 28 132 35 51 105 106 221 172 112 65 244 122 520 224 l220 82 12 75 c6
40 24 148 38 239 68 423 193 912 339 1324 25 71 45 130 43 132 -1 1 -20 11
-42 22 -151 75 -323 70 -705 -23 -262 -64 -330 -59 -330 23 0 32 8 44 63 97
125 119 354 215 604 255 32 5 150 7 263 5 180 -2 217 -6 301 -28z"/>
<path d="M1275 1601 c-310 -109 -366 -141 -368 -213 -2 -59 35 -104 117 -143
84 -40 162 -52 226 -35 56 15 114 74 163 168 51 97 113 303 91 301 -5 0 -108
-36 -229 -78z"/>
</g>
<g transform="translate(0.000000,512.000000) scale(0.100000,-0.100000)"
   fill="white" stroke="none">
</g>
</svg>
